<?xml version="1.0" standalone="no"?>
<!DOCTYPE svg PUBLIC "-//W3C//DTD SVG 20010904//EN"
 "http://www.w3.org/TR/2001/REC-SVG-20010904/DTD/svg10.dtd">
<svg version="1.0" xmlns="http://www.w3.org/2000/svg"
 width="138.000000pt" height="157.000000pt" viewBox="0 0 138.000000 157.000000"
 preserveAspectRatio="xMidYMid meet">

<g transform="translate(0.000000,157.000000) scale(0.100000,-0.100000)"
fill="#000000" stroke="none">
<path d="M559 1477 c-20 -6 -49 -22 -65 -35 -16 -12 -49 -37 -73 -55 -24 -18
-50 -42 -58 -54 -14 -20 -13 -21 9 -15 13 3 44 21 69 39 91 65 155 88 244 87
67 0 89 -5 134 -28 118 -61 190 -161 217 -301 l14 -70 -5 60 c-14 161 -96 284
-234 352 -63 31 -191 41 -252 20z"/>
<path d="M1054 546 c-8 -21 4 -37 24 -34 15 3 17 -8 17 -77 0 -75 -1 -80 -22
-83 -15 -2 -23 -10 -23 -23 0 -17 8 -19 70 -19 62 0 70 2 70 19 0 13 -8 21
-22 23 -22 3 -23 9 -28 103 l-5 100 -38 3 c-26 2 -39 -1 -43 -12z"/>
<path d="M60 425 l0 -115 25 0 c22 0 25 4 25 34 0 33 2 34 48 41 26 4 55 11
64 16 35 19 31 106 -6 131 -6 4 -44 8 -83 8 l-73 0 0 -115z m135 41 c0 -24 -5
-31 -30 -38 -43 -11 -55 -3 -55 37 l0 36 43 -3 c39 -3 42 -5 42 -32z"/>
<path d="M703 513 c-7 -2 -13 -11 -13 -19 0 -8 -9 -14 -20 -14 -13 0 -20 -7
-20 -20 0 -13 7 -20 20 -20 17 0 20 -7 20 -49 0 -75 5 -81 61 -81 42 0 49 3
49 20 0 16 -7 20 -31 20 -29 0 -30 1 -27 43 3 38 6 42 31 45 19 2 27 9 27 23
0 14 -7 19 -30 19 -23 0 -30 4 -30 20 0 19 -12 24 -37 13z"/>
<path d="M324 468 c-22 -10 -44 -47 -44 -73 0 -27 22 -63 47 -74 66 -30 137 8
137 74 0 67 -74 105 -140 73z m84 -40 c7 -7 12 -21 12 -33 0 -12 -5 -26 -12
-33 -7 -7 -21 -12 -33 -12 -40 0 -61 50 -33 78 7 7 21 12 33 12 12 0 26 -5 33
-12z"/>
<path d="M510 395 c0 -78 2 -85 20 -85 16 0 19 8 22 63 l3 62 43 3 c34 3 42 7
42 23 0 17 -7 19 -65 19 l-65 0 0 -85z"/>
<path d="M863 465 c-13 -9 -23 -23 -23 -31 0 -16 36 -19 45 -4 10 16 65 12 65
-5 0 -9 -9 -15 -24 -15 -39 0 -84 -20 -89 -40 -14 -56 73 -83 111 -35 24 31
29 31 28 3 -1 -18 5 -24 27 -26 21 -3 27 1 27 16 0 11 -7 22 -15 26 -10 3 -15
19 -15 44 0 21 -6 46 -13 56 -19 25 -95 32 -124 11z m87 -90 c0 -17 -43 -31
-61 -19 -9 5 -7 11 6 21 25 17 55 17 55 -2z"/>
<path d="M680 195 c0 -25 4 -45 10 -45 11 0 24 65 15 79 -14 24 -25 9 -25 -34z"/>
<path d="M497 223 c-8 -7 11 -33 24 -33 5 0 8 6 7 13 -2 7 6 12 19 11 12 0 20
3 17 8 -6 10 -58 11 -67 1z"/>
<path d="M828 218 c-2 -6 -2 -24 0 -40 3 -22 9 -28 30 -28 25 0 25 1 6 15 -17
14 -18 16 -3 28 14 10 14 14 3 25 -17 15 -31 15 -36 0z"/>
<path d="M594 196 c-11 -28 4 -48 33 -44 22 2 28 8 28 28 0 20 -6 26 -28 28
-18 2 -29 -2 -33 -12z m46 -22 c0 -8 -7 -14 -15 -14 -15 0 -21 21 -9 33 10 9
24 -2 24 -19z"/>
<path d="M720 185 c0 -14 7 -28 15 -32 21 -8 24 -3 18 30 -7 34 -33 36 -33 2z"/>
<path d="M780 190 c0 -11 0 -23 -1 -27 0 -4 4 -9 10 -11 6 -2 11 10 11 27 0
17 -4 31 -10 31 -5 0 -10 -9 -10 -20z"/>
<path d="M897 203 c-2 -5 -3 -18 -3 -30 1 -36 21 -32 24 5 3 28 -10 44 -21 25z"/>
<path d="M942 193 c-14 -27 -3 -43 28 -43 33 0 44 12 35 40 -8 25 -51 27 -63
3z m48 -19 c0 -8 -7 -14 -15 -14 -15 0 -21 21 -9 33 10 9 24 -2 24 -19z"/>
<path d="M1027 188 c-6 -23 -1 -38 12 -38 11 0 19 31 14 48 -7 19 -20 14 -26
-10z"/>
<path d="M1065 201 c-3 -6 -1 -11 4 -11 6 0 11 -9 11 -20 0 -11 7 -20 16 -20
11 0 14 8 12 27 -3 28 -31 43 -43 24z"/>
<path d="M1130 195 c0 -8 7 -15 15 -15 8 0 15 -5 15 -11 0 -6 -9 -9 -20 -6
-11 3 -20 1 -20 -4 0 -5 16 -9 35 -9 40 0 45 14 13 32 l-23 12 25 7 c23 6 23
7 -7 8 -23 1 -33 -4 -33 -14z"/>
<path d="M540 175 c0 -13 -6 -16 -25 -11 -15 4 -25 2 -25 -4 0 -7 15 -10 38
-8 36 3 53 26 25 36 -7 2 -13 -4 -13 -13z"/>
</g>
</svg>
